<mxfile host="app.diagrams.net" agent="Mozilla/5.0 (Windows NT 10.0; Win64; x64; rv:135.0) Gecko/20100101 Firefox/135.0" version="26.0.14">
  <diagram name="Page-1" id="q5F20lJ9FUb1TUrAZzrM">
    <mxGraphModel grid="1" page="1" gridSize="10" guides="1" tooltips="1" connect="1" arrows="1" fold="1" pageScale="1" pageWidth="850" pageHeight="1100" math="0" shadow="0">
      <root>
        <mxCell id="0" />
        <mxCell id="1" parent="0" />
        <mxCell id="ygBBu5UikVqFtQNAqogO-1" value="Start" style="ellipse;whiteSpace=wrap;html=1;" vertex="1" parent="1">
          <mxGeometry x="350" y="50" width="120" height="80" as="geometry" />
        </mxCell>
        <mxCell id="ygBBu5UikVqFtQNAqogO-2" value="&lt;div&gt;Enter #1-12&lt;/div&gt;&lt;div&gt;&lt;br&gt;&lt;/div&gt;" style="shape=parallelogram;perimeter=parallelogramPerimeter;whiteSpace=wrap;html=1;fixedSize=1;" vertex="1" parent="1">
          <mxGeometry x="365" y="160" width="120" height="60" as="geometry" />
        </mxCell>
        <mxCell id="ygBBu5UikVqFtQNAqogO-3" value="&lt;div&gt;Month [3,4,5] Yes Output: Month is X and current season Spring, No: Go to next decision&lt;span style=&quot;white-space: pre;&quot;&gt;&#x9;&lt;/span&gt;&lt;span style=&quot;white-space: pre;&quot;&gt;&#x9;&lt;/span&gt;&lt;span style=&quot;white-space: pre;&quot;&gt;&#x9;&lt;/span&gt;&lt;span style=&quot;white-space: pre;&quot;&gt;&#x9;&lt;/span&gt;&lt;/div&gt;" style="rhombus;whiteSpace=wrap;html=1;" vertex="1" parent="1">
          <mxGeometry x="280" y="250" width="290" height="170" as="geometry" />
        </mxCell>
        <mxCell id="ygBBu5UikVqFtQNAqogO-4" value="&lt;div&gt;Month [6,7,8] Yes Output:Month is X current season Summer-End&lt;/div&gt;&lt;div&gt;No: Go to Next Decision-End&lt;/div&gt;" style="rhombus;whiteSpace=wrap;html=1;" vertex="1" parent="1">
          <mxGeometry x="300" y="440" width="260" height="130" as="geometry" />
        </mxCell>
        <mxCell id="ygBBu5UikVqFtQNAqogO-15" value="" style="edgeStyle=orthogonalEdgeStyle;rounded=0;orthogonalLoop=1;jettySize=auto;html=1;" edge="1" parent="1" source="ygBBu5UikVqFtQNAqogO-5" target="ygBBu5UikVqFtQNAqogO-4">
          <mxGeometry relative="1" as="geometry" />
        </mxCell>
        <mxCell id="ygBBu5UikVqFtQNAqogO-5" value="&lt;div&gt;Month [9,10,11] Yes Output: Month is X and current season fall-End&lt;/div&gt;&lt;div&gt;No Output: Month is X current is season Winter-End&lt;/div&gt;" style="rhombus;whiteSpace=wrap;html=1;" vertex="1" parent="1">
          <mxGeometry x="310" y="580" width="240" height="130" as="geometry" />
        </mxCell>
        <mxCell id="ygBBu5UikVqFtQNAqogO-6" value="End" style="ellipse;whiteSpace=wrap;html=1;" vertex="1" parent="1">
          <mxGeometry x="365" y="750" width="120" height="80" as="geometry" />
        </mxCell>
        <mxCell id="ygBBu5UikVqFtQNAqogO-9" value="" style="endArrow=classic;html=1;rounded=0;exitX=0.5;exitY=1;exitDx=0;exitDy=0;" edge="1" parent="1" source="ygBBu5UikVqFtQNAqogO-2" target="ygBBu5UikVqFtQNAqogO-3">
          <mxGeometry width="50" height="50" relative="1" as="geometry">
            <mxPoint x="409.5" y="220" as="sourcePoint" />
            <mxPoint x="409.5" y="270" as="targetPoint" />
          </mxGeometry>
        </mxCell>
        <mxCell id="ygBBu5UikVqFtQNAqogO-11" value="" style="endArrow=classic;html=1;rounded=0;" edge="1" parent="1">
          <mxGeometry width="50" height="50" relative="1" as="geometry">
            <mxPoint x="429.5" y="560" as="sourcePoint" />
            <mxPoint x="429.5" y="590" as="targetPoint" />
          </mxGeometry>
        </mxCell>
        <mxCell id="ygBBu5UikVqFtQNAqogO-12" value="" style="endArrow=classic;html=1;rounded=0;" edge="1" parent="1">
          <mxGeometry width="50" height="50" relative="1" as="geometry">
            <mxPoint x="425" y="700" as="sourcePoint" />
            <mxPoint x="425" y="750" as="targetPoint" />
          </mxGeometry>
        </mxCell>
        <mxCell id="ygBBu5UikVqFtQNAqogO-16" value="" style="endArrow=classic;html=1;rounded=0;entryX=0.5;entryY=0;entryDx=0;entryDy=0;" edge="1" parent="1" target="ygBBu5UikVqFtQNAqogO-4">
          <mxGeometry width="50" height="50" relative="1" as="geometry">
            <mxPoint x="425" y="420" as="sourcePoint" />
            <mxPoint x="445" y="430" as="targetPoint" />
          </mxGeometry>
        </mxCell>
        <mxCell id="ygBBu5UikVqFtQNAqogO-19" value="" style="endArrow=classic;html=1;rounded=0;" edge="1" parent="1">
          <mxGeometry width="50" height="50" relative="1" as="geometry">
            <mxPoint x="420" y="130" as="sourcePoint" />
            <mxPoint x="420" y="160" as="targetPoint" />
          </mxGeometry>
        </mxCell>
      </root>
    </mxGraphModel>
  </diagram>
</mxfile>
